<?xml version="1.0" encoding="utf-8"?>
<!-- Generator: Adobe Illustrator 13.0.2, SVG Export Plug-In . SVG Version: 6.00 Build 14948)  -->
<!DOCTYPE svg PUBLIC "-//W3C//DTD SVG 1.1//EN" "http://www.w3.org/Graphics/SVG/1.1/DTD/svg11.dtd">
<svg version="1.1" id="Layer_1" xmlns="http://www.w3.org/2000/svg" xmlns:xlink="http://www.w3.org/1999/xlink" x="0px" y="0px"
	 width="1095.5px" height="1162.701px" viewBox="0 0 1095.5 1162.701" enable-background="new 0 0 1095.5 1162.701"
	 xml:space="preserve">
<g>
	<defs>
		<rect id="SVGID_1_" y="1087.5" width="75.201" height="75.201"/>
	</defs>
	<clipPath id="SVGID_2_">
		<use xlink:href="#SVGID_1_"  overflow="visible"/>
	</clipPath>
	<path clip-path="url(#SVGID_2_)" fill="#650F6C" d="M34.131,1136.298c-9.84,0-16.711-5.147-16.711-12.523
		c0-7.369,6.871-12.518,16.711-12.518c9.836,0,16.708,5.148,16.708,12.518C50.839,1131.15,43.967,1136.298,34.131,1136.298z"/>
	
		<rect x="52.96" y="1131.49" transform="matrix(0.9926 0.1215 -0.1215 0.9926 138.1645 1.6873)" clip-path="url(#SVGID_2_)" fill="#650F6C" width="4.58" height="4.063"/>
	<polygon clip-path="url(#SVGID_2_)" fill="#650F6C" points="54.076,1110.694 54.104,1128.689 57.437,1129.099 61.809,1111.671 	"/>
	<path clip-path="url(#SVGID_2_)" fill="#FFFFFF" d="M43.88,1120.685c-0.363,0.037-1.867,0.374-2.373,0.481
		c-0.542,0.145-5.49,3.967-5.815,4.907c-0.072,0.325-0.108,0.824-0.108,1.294l-0.037,0.758c0,0.543,0.15,1.414,0.222,1.886
		c0.325,0.071,2.68,0.009,3.112,0.081l-0.052,0.97c-0.423-0.029-3.413-0.022-5.121-0.022c-0.868,0-3.654,0.094-4.511,0.068
		l0.162-0.923c0.47-0.037,2.413,0.084,2.841-0.367c0.213-0.225,0.145-0.464,0.145-1.764v-0.615c0-0.29,0-0.829-0.072-1.335
		c-0.18-0.542-4.539-5.984-5.66-6.852c-0.324-0.108-2.361-0.312-2.867-0.42l-0.025-0.833c0.251-0.126,2.517,0.032,4.716-0.05
		c1.444-0.054,4.741,0,5.148,0.048l-0.104,0.733c-0.435,0.109-2.521,0.149-3.063,0.294c1.408,2.094,3.638,4.791,4.359,5.838
		c0.397-0.577,3.89-2.979,3.998-3.81c-0.542-0.107-2.337-0.368-2.625-0.368l-0.172-0.945c0.492-0.076,3.077,0,4.364,0
		c1.109,0,3.479,0,4.153,0.056L43.88,1120.685z"/>
	<polygon clip-path="url(#SVGID_2_)" fill="#650F6C" points="58.988,1131.771 58.615,1131.771 58.615,1131.559 59.593,1131.559 
		59.593,1131.771 59.219,1131.771 59.219,1132.768 58.988,1132.768 	"/>
	<polygon clip-path="url(#SVGID_2_)" fill="#650F6C" points="59.852,1131.559 60.099,1131.559 60.465,1132.132 60.83,1131.559 
		61.069,1131.559 61.069,1132.768 60.846,1132.768 60.846,1131.908 60.473,1132.489 60.449,1132.489 60.076,1131.908 
		60.076,1132.768 59.852,1132.768 	"/>
</g>
<text transform="matrix(1 0 0 1 70.2012 1124.5996)" fill="#404040" font-family="'Arial-BoldMT'" font-size="21">DESIGN STENCILS</text>
<text transform="matrix(1 0 0 1 70.2012 1143.5996)" fill="#404040" font-family="'ArialMT'" font-size="16">http://design.yahoo.com</text>
<text transform="matrix(1 0 0 1 963.6729 1121.5996)" fill="#404040" font-family="'Arial-BoldMT'" font-size="18">IAB </text>
<text transform="matrix(1 0 0 1 999.0049 1121.5996)" fill="#404040" font-family="'Arial-BoldMT'" font-size="18">Ad Units</text>
<text transform="matrix(1 0 0 1 1020.5234 1140.5996)" fill="#404040" font-family="'ArialMT'" font-size="16">ver</text>
<text transform="matrix(1 0 0 1 1041.8672 1140.5996)" fill="#404040" font-family="'ArialMT'" font-size="16">. 1.0</text>
<line fill="none" stroke="#808080" stroke-width="2" stroke-linecap="round" stroke-linejoin="round" stroke-miterlimit="10" x1="14.5" y1="1097.7" x2="1094.5" y2="1097.7"/>
<rect x="514.5" y="102.667" fill="#808080" width="234" height="60"/>
<text transform="matrix(1 0 0 1 531.6479 138.667)" fill="#4D4D4D" font-family="'Gotham-Bold'" font-size="16">HALF BANNER 234 x 60</text>
<rect x="36.5" y="102.667" fill="#808080" width="468" height="60"/>
<text transform="matrix(1 0 0 1 195.2642 138.667)" fill="#4D4D4D" font-family="'Gotham-Bold'" font-size="16">BANNER 468 x 60</text>
<rect x="781.5" y="112.667" fill="#808080" width="250" height="250"/>
<text transform="matrix(1 0 0 1 836.2246 234.167)" fill="#4D4D4D" font-family="'Gotham-Bold'" font-size="16">SQU</text>
<text transform="matrix(1 0 0 1 871.7598 234.167)" fill="#4D4D4D" font-family="'Gotham-Bold'" font-size="16">ARE POP-UP</text>
<text transform="matrix(1 0 0 1 864.7998 253.167)" fill="#4D4D4D" font-family="'Gotham-Bold'" font-size="16">250 x 250</text>
<rect x="171.5" y="175.333" fill="#808080" width="120" height="600"/>
<text transform="matrix(1 0 0 1 214.5518 471.833)" fill="#4D4D4D" font-family="'Gotham-Bold'" font-size="16">SK</text>
<text transform="matrix(1 0 0 1 235.9922 471.833)" fill="#4D4D4D" font-family="'Gotham-Bold'" font-size="16">Y</text>
<text transform="matrix(1 0 0 1 190.3521 490.833)" fill="#4D4D4D" font-family="'Gotham-Bold'" font-size="16">120 x 600</text>
<rect x="301.5" y="175.333" fill="#808080" width="160" height="600"/>
<text transform="matrix(1 0 0 1 338.8721 471.833)" fill="#4D4D4D" font-family="'Gotham-Bold'" font-size="16">WIDE SK</text>
<text transform="matrix(1 0 0 1 411.6719 471.833)" fill="#4D4D4D" font-family="'Gotham-Bold'" font-size="16">Y</text>
<text transform="matrix(1 0 0 1 340.04 490.833)" fill="#4D4D4D" font-family="'Gotham-Bold'" font-size="16">160 x 600</text>
<rect x="384.5" y="785.333" fill="#808080" width="300" height="250"/>
<text transform="matrix(1 0 0 1 510.0078 906.833)" fill="#4D4D4D" font-family="'Gotham-Bold'" font-size="16">MREC</text>
<text transform="matrix(1 0 0 1 492.0161 925.833)" fill="#4D4D4D" font-family="'Gotham-Bold'" font-size="16">300 x 250</text>
<rect x="781.5" y="375.333" fill="#808080" width="240" height="400"/>
<text transform="matrix(1 0 0 1 877.9521 571.833)" fill="#4D4D4D" font-family="'Gotham-Bold'" font-size="16">VREC</text>
<text transform="matrix(1 0 0 1 858.1201 590.833)" fill="#4D4D4D" font-family="'Gotham-Bold'" font-size="16">2</text>
<text transform="matrix(1 0 0 1 867.8477 590.833)" fill="#4D4D4D" font-family="'Gotham-Bold'" font-size="16">40 x 400</text>
<rect x="36.5" y="785.333" fill="#808080" width="336" height="280"/>
<text transform="matrix(1 0 0 1 182 921.833)" fill="#4D4D4D" font-family="'Gotham-Bold'" font-size="16">LREC</text>
<text transform="matrix(1 0 0 1 163.4321 940.833)" fill="#4D4D4D" font-family="'Gotham-Bold'" font-size="16">336 x 280</text>
<rect x="698.5" y="785.333" fill="#808080" width="180" height="150"/>
<text transform="matrix(1 0 0 1 770.9521 856.833)" fill="#4D4D4D" font-family="'Gotham-Bold'" font-size="16">REC</text>
<text transform="matrix(1 0 0 1 750.0156 875.833)" fill="#4D4D4D" font-family="'Gotham-Bold'" font-size="16">180 x 150</text>
<rect x="698.5" y="945.333" fill="#808080" width="300" height="100"/>
<text transform="matrix(1 0 0 1 817.8398 991.833)" fill="#4D4D4D" font-family="'Gotham-Bold'" font-size="16">3:1 REC</text>
<text transform="matrix(1 0 0 1 806.8242 1010.833)" fill="#4D4D4D" font-family="'Gotham-Bold'" font-size="16">300 x 100</text>
<rect x="36.5" y="741" fill="#808080" width="88" height="31"/>
<text transform="matrix(1 0 0 1 46.7251 752.5)" fill="#4D4D4D" font-family="'Gotham-Bold'" font-size="11">MICRO BAR </text>
<text transform="matrix(1 0 0 1 57.3345 767.5)" fill="#4D4D4D" font-family="'Gotham-Bold'" font-size="13">88 x 31</text>
<rect x="36.5" y="565.667" fill="#808080" width="120" height="90"/>
<text transform="matrix(1 0 0 1 55.1519 607.167)" fill="#4D4D4D" font-family="'Gotham-Bold'" font-size="16">BUTT</text>
<text transform="matrix(1 0 0 1 99.0562 607.167)" fill="#4D4D4D" font-family="'Gotham-Bold'" font-size="16">ON 1</text>
<text transform="matrix(1 0 0 1 60.0078 626.167)" fill="#4D4D4D" font-family="'Gotham-Bold'" font-size="16">120 X 90</text>
<rect x="36.5" y="668.333" fill="#808080" width="120" height="60"/>
<text transform="matrix(1 0 0 1 53.5439 694.833)" fill="#4D4D4D" font-family="'Gotham-Bold'" font-size="16">BUTT</text>
<text transform="matrix(1 0 0 1 97.4482 694.833)" fill="#4D4D4D" font-family="'Gotham-Bold'" font-size="16">ON 2</text>
<text transform="matrix(1 0 0 1 60.0078 713.833)" fill="#4D4D4D" font-family="'Gotham-Bold'" font-size="16">120 X 60</text>
<rect x="36.5" y="175.333" fill="#808080" width="120" height="240"/>
<text transform="matrix(1 0 0 1 53.8081 282.333)" fill="#4D4D4D" font-family="'Gotham-Bold'" font-size="16">VERTICAL</text>
<text transform="matrix(1 0 0 1 60.1201 301.333)" fill="#4D4D4D" font-family="'Gotham-Bold'" font-size="16">BANNER</text>
<text transform="matrix(1 0 0 1 54.9282 320.333)" fill="#4D4D4D" font-family="'Gotham-Bold'" font-size="16">120 X 2</text>
<text transform="matrix(1 0 0 1 114.3682 320.333)" fill="#4D4D4D" font-family="'Gotham-Bold'" font-size="16">40</text>
<rect x="36.5" y="428" fill="#808080" width="125" height="125"/>
<text transform="matrix(1 0 0 1 63.2681 477.5)" fill="#4D4D4D" font-family="'Gotham-Bold'" font-size="16">SQU</text>
<text transform="matrix(1 0 0 1 98.8042 477.5)" fill="#4D4D4D" font-family="'Gotham-Bold'" font-size="16">ARE</text>
<text transform="matrix(1 0 0 1 63.4282 496.5)" fill="#4D4D4D" font-family="'Gotham-Bold'" font-size="16">BUTT</text>
<text transform="matrix(1 0 0 1 107.332 496.5)" fill="#4D4D4D" font-family="'Gotham-Bold'" font-size="16">ON</text>
<text transform="matrix(1 0 0 1 61.0439 515.5)" fill="#4D4D4D" font-family="'Gotham-Bold'" font-size="16">125 X 125</text>
<rect x="36.5" fill="#808080" width="728" height="90"/>
<text transform="matrix(1 0 0 1 335.3921 41.5)" fill="#4D4D4D" font-family="'Gotham-Bold'" font-size="16">LEADERBO</text>
<text transform="matrix(1 0 0 1 427.8882 41.5)" fill="#4D4D4D" font-family="'Gotham-Bold'" font-size="16">ARD</text>
<text transform="matrix(1 0 0 1 363.3521 60.5)" fill="#4D4D4D" font-family="'Gotham-Bold'" font-size="16">7</text>
<text transform="matrix(1 0 0 1 373.0161 60.5)" fill="#4D4D4D" font-family="'Gotham-Bold'" font-size="16">28 X 90</text>
<rect x="471.5" y="175.333" fill="#808080" width="300" height="600"/>
<text transform="matrix(1 0 0 1 573.624 471.833)" fill="#4D4D4D" font-family="'Gotham-Bold'" font-size="16">HALF P</text>
<text transform="matrix(1 0 0 1 633.1914 471.833)" fill="#4D4D4D" font-family="'Gotham-Bold'" font-size="16">A</text>
<text transform="matrix(1 0 0 1 645.1113 471.833)" fill="#4D4D4D" font-family="'Gotham-Bold'" font-size="16">GE</text>
<text transform="matrix(1 0 0 1 577.9043 490.833)" fill="#4D4D4D" font-family="'Gotham-Bold'" font-size="16">300 x 600</text>
</svg>
